<?xml version="1.0" encoding="UTF-8" standalone="no"?>
<svg
   xmlns:dc="http://purl.org/dc/elements/1.1/"
   xmlns:cc="http://creativecommons.org/ns#"
   xmlns:rdf="http://www.w3.org/1999/02/22-rdf-syntax-ns#"
   xmlns:svg="http://www.w3.org/2000/svg"
   xmlns="http://www.w3.org/2000/svg"
   xmlns:sodipodi="http://sodipodi.sourceforge.net/DTD/sodipodi-0.dtd"
   xmlns:inkscape="http://www.inkscape.org/namespaces/inkscape"
   width="300"
   height="300"
   viewBox="0 0 300 300"
   version="1.1"
   id="svg3763"
   sodipodi:docname="hatenablog-logo.svg"
   inkscape:version="0.92.3 (d244b95, 2018-08-02)">
  <metadata
     id="metadata3769">
    <rdf:RDF>
      <cc:Work
         rdf:about="">
        <dc:format>image/svg+xml</dc:format>
        <dc:type
           rdf:resource="http://purl.org/dc/dcmitype/StillImage" />
      </cc:Work>
    </rdf:RDF>
  </metadata>
  <defs
     id="defs3767" />
  <sodipodi:namedview
     pagecolor="#ffffff"
     bordercolor="#666666"
     borderopacity="1"
     objecttolerance="10"
     gridtolerance="10"
     guidetolerance="10"
     inkscape:pageopacity="0"
     inkscape:pageshadow="2"
     inkscape:window-width="2423"
     inkscape:window-height="1313"
     id="namedview3765"
     showgrid="false"
     inkscape:zoom="2"
     inkscape:cx="85.75"
     inkscape:cy="150"
     inkscape:window-x="59"
     inkscape:window-y="27"
     inkscape:window-maximized="1"
     inkscape:current-layer="svg3763" />
  <path
     fill="#333"
     d="M149.999 248.909c-54.537 0-98.906-44.367-98.906-98.909 0-54.537 44.369-98.909 98.906-98.909 54.545 0 98.908 44.372 98.908 98.909 0 54.542-44.363 98.909-98.908 98.909zm0-185.238c-47.601 0-86.33 38.723-86.33 86.329 0 47.605 38.729 86.332 86.33 86.332 47.61 0 86.338-38.727 86.338-86.332 0-47.606-38.728-86.329-86.338-86.329zM161.52 101.16c-4.832-9.785-7.783-19.3-9.273-24.845v70.055c2.447.917 4.197 3.257 4.197 6.021 0 3.559-2.887 6.442-6.443 6.442-3.56 0-6.443-2.885-6.443-6.442 0-2.896 1.925-5.317 4.558-6.131v-70.019c-1.485 5.531-4.438 15.092-9.293 24.919-7.571 15.314-17.009 28.823-17.009 28.823l6.036 82.598s5.736 6.401 22.31 6.41h.023c16.573-.009 22.312-6.41 22.312-6.41l6.035-82.598c-.003 0-9.441-13.508-17.01-28.823z"
     id="path3761" />
  <g
     inkscape:groupmode="layer"
     id="layer1"
     inkscape:label="Layer 1" />
</svg>
